<?xml version="1.0" encoding="UTF-8"?>
<!DOCTYPE svg PUBLIC "-//W3C//DTD SVG 1.1//EN" "http://www.w3.org/Graphics/SVG/1.1/DTD/svg11.dtd">
<svg xmlns="http://www.w3.org/2000/svg" version="1.1" width="1208px" height="1220px" style="shape-rendering:geometricPrecision; text-rendering:geometricPrecision; image-rendering:optimizeQuality; fill-rule:evenodd; clip-rule:evenodd" xmlns:xlink="http://www.w3.org/1999/xlink">
<g><path style="opacity:0.996" fill="#022b91" d="M 602.5,-0.5 C 603.167,-0.5 603.833,-0.5 604.5,-0.5C 604.5,-0.166667 604.5,0.166667 604.5,0.5C 604.831,116.904 604.498,233.237 603.5,349.5C 503.5,407.167 403.5,464.833 303.5,522.5C 302.833,522.5 302.167,522.5 301.5,522.5C 301.167,406.165 301.5,289.831 302.5,173.5C 402.798,115.836 502.798,57.8361 602.5,-0.5 Z"/></g>
<g><path style="opacity:0.998" fill="#1388da" d="M 604.5,0.5 C 704.942,57.8903 805.275,115.557 905.5,173.5C 906.5,289.831 906.833,406.165 906.5,522.5C 905.833,522.5 905.167,522.5 904.5,522.5C 804.031,465.098 703.698,407.431 603.5,349.5C 604.498,233.237 604.831,116.904 604.5,0.5 Z"/></g>
<g><path style="opacity:0.997" fill="#1388da" d="M 301.5,522.5 C 302.167,522.5 302.833,522.5 303.5,522.5C 303.5,638.5 303.5,754.5 303.5,870.5C 202.083,927.043 101.083,984.377 0.5,1042.5C 0.166667,1042.5 -0.166667,1042.5 -0.5,1042.5C -0.5,926.833 -0.5,811.167 -0.5,695.5C 100.167,637.833 200.833,580.167 301.5,522.5 Z"/></g>
<g><path style="opacity:0.996" fill="#022b91" d="M 904.5,522.5 C 905.167,522.5 905.833,522.5 906.5,522.5C 1006.39,580.696 1106.22,639.029 1206,697.5C 1206.17,812.334 1206.67,927.001 1207.5,1041.5C 1207.5,1043.17 1207.5,1044.83 1207.5,1046.5C 1206.83,1046.5 1206.17,1046.5 1205.5,1046.5C 1105.37,987.596 1005.03,928.929 904.5,870.5C 904.5,754.5 904.5,638.5 904.5,522.5 Z"/></g>
<g><path style="opacity:0.978" fill="#032a91" d="M 398.5,524.5 C 438.854,524.074 479.187,524.574 519.5,526C 549.582,531.08 566.249,548.747 569.5,579C 568.467,599.575 559.134,615.075 541.5,625.5C 573.535,638.903 585.368,662.569 577,696.5C 567.514,724.303 548.014,738.803 518.5,740C 478.501,740.5 438.501,740.667 398.5,740.5C 398.5,668.5 398.5,596.5 398.5,524.5 Z M 442.5,561.5 C 464.872,561.066 487.206,561.566 509.5,563C 522.61,568.046 527.777,577.546 525,591.5C 522.167,599.667 516.667,605.167 508.5,608C 486.545,609.445 464.545,609.945 442.5,609.5C 442.5,593.5 442.5,577.5 442.5,561.5 Z M 442.5,646.5 C 465.897,645.953 489.23,646.787 512.5,649C 529.291,654.48 536.124,665.98 533,683.5C 530.067,693.434 523.567,699.6 513.5,702C 489.865,703.415 466.198,703.915 442.5,703.5C 442.5,684.5 442.5,665.5 442.5,646.5 Z"/></g>
<g><path style="opacity:0.971" fill="#032a91" d="M 628.5,524.5 C 643.5,524.5 658.5,524.5 673.5,524.5C 673.333,555.502 673.5,586.502 674,617.5C 702.868,586.967 731.368,556.134 759.5,525C 779.5,524.333 799.5,524.333 819.5,525C 792.27,552.808 765.27,580.808 738.5,609C 766.833,652.667 795.167,696.333 823.5,740C 804.158,740.833 784.825,740.666 765.5,739.5C 746.199,706.37 726.699,673.37 707,640.5C 696.363,652.137 685.363,663.471 674,674.5C 673.5,696.497 673.333,718.497 673.5,740.5C 658.5,740.5 643.5,740.5 628.5,740.5C 628.5,668.5 628.5,596.5 628.5,524.5 Z"/></g>
<g><path style="opacity:0.926" fill="#1487db" d="M 683.5,779.5 C 704.515,776.331 718.848,784.498 726.5,804C 720.766,806.06 714.932,807.894 709,809.5C 703.531,795.512 694.031,791.678 680.5,798C 674.883,802.395 671.716,808.228 671,815.5C 670.076,823.641 670.743,831.641 673,839.5C 679.148,851.217 688.315,854.383 700.5,849C 705.107,845.229 707.773,840.396 708.5,834.5C 714.853,835.229 720.853,837.063 726.5,840C 717.983,864.087 701.316,872.42 676.5,865C 659.254,856.853 651.254,843.186 652.5,824C 651.446,800.866 661.779,786.033 683.5,779.5 Z"/></g>
<g><path style="opacity:0.95" fill="#1487db" d="M 398.5,780.5 C 420.833,780.5 443.167,780.5 465.5,780.5C 465.5,785.833 465.5,791.167 465.5,796.5C 457.167,796.5 448.833,796.5 440.5,796.5C 440.5,819.5 440.5,842.5 440.5,865.5C 434.833,865.5 429.167,865.5 423.5,865.5C 423.5,842.5 423.5,819.5 423.5,796.5C 415.167,796.5 406.833,796.5 398.5,796.5C 398.5,791.167 398.5,785.833 398.5,780.5 Z"/></g>
<g><path style="opacity:0.93" fill="#1487db" d="M 475.5,780.5 C 491.531,780.176 507.531,780.676 523.5,782C 530.909,784.408 536.076,789.242 539,796.5C 542.364,807.704 540.531,817.87 533.5,827C 530.282,829.777 526.615,831.777 522.5,833C 512.87,834.198 503.204,834.698 493.5,834.5C 493.5,844.833 493.5,855.167 493.5,865.5C 487.5,865.5 481.5,865.5 475.5,865.5C 475.5,837.167 475.5,808.833 475.5,780.5 Z M 493.5,796.5 C 500.508,796.334 507.508,796.5 514.5,797C 525.167,804 525.167,811 514.5,818C 507.508,818.5 500.508,818.666 493.5,818.5C 493.5,811.167 493.5,803.833 493.5,796.5 Z"/></g>
<g><path style="opacity:0.948" fill="#1487db" d="M 570.5,780.5 C 576.5,780.5 582.5,780.5 588.5,780.5C 588.5,791.5 588.5,802.5 588.5,813.5C 599.5,813.5 610.5,813.5 621.5,813.5C 621.5,802.5 621.5,791.5 621.5,780.5C 627.167,780.5 632.833,780.5 638.5,780.5C 638.5,808.833 638.5,837.167 638.5,865.5C 632.833,865.5 627.167,865.5 621.5,865.5C 621.5,853.5 621.5,841.5 621.5,829.5C 610.5,829.5 599.5,829.5 588.5,829.5C 588.5,841.5 588.5,853.5 588.5,865.5C 582.5,865.5 576.5,865.5 570.5,865.5C 570.5,837.167 570.5,808.833 570.5,780.5 Z"/></g>
<g><path style="opacity:0.928" fill="#1487db" d="M 739.5,780.5 C 748.418,780.183 757.251,780.516 766,781.5C 770.667,799.5 775.333,817.5 780,835.5C 785.533,817.394 790.366,799.06 794.5,780.5C 803.5,780.5 812.5,780.5 821.5,780.5C 821.5,808.833 821.5,837.167 821.5,865.5C 815.833,865.5 810.167,865.5 804.5,865.5C 804.667,845.497 804.5,825.497 804,805.5C 798.848,825.442 794.014,845.442 789.5,865.5C 783.463,865.829 777.463,865.496 771.5,864.5C 766.512,845.548 761.679,826.548 757,807.5C 756.5,826.83 756.333,846.164 756.5,865.5C 750.833,865.5 745.167,865.5 739.5,865.5C 739.5,837.167 739.5,808.833 739.5,780.5 Z"/></g>
<g><path style="opacity:0.898" fill="#1487db" d="M 538.5,848.5 C 544.167,848.5 549.833,848.5 555.5,848.5C 555.5,854.167 555.5,859.833 555.5,865.5C 549.833,865.5 544.167,865.5 538.5,865.5C 538.5,859.833 538.5,854.167 538.5,848.5 Z"/></g>
<g><path style="opacity:0.998" fill="#1388da" d="M 904.5,870.5 C 1005.03,928.929 1105.37,987.596 1205.5,1046.5C 1105.96,1103.86 1006.12,1160.86 906,1217.5C 805.543,1160.36 705.043,1103.36 604.5,1046.5C 604.5,1045.5 604.5,1044.5 604.5,1043.5C 704.5,985.833 804.5,928.167 904.5,870.5 Z"/></g>
<g><path style="opacity:0.998" fill="#002698" d="M 303.5,870.5 C 403.698,928.431 504.031,986.098 604.5,1043.5C 604.5,1044.5 604.5,1045.5 604.5,1046.5C 599.536,1047.95 594.869,1050.12 590.5,1053C 494.77,1108.53 399.104,1164.03 303.5,1219.5C 302.833,1219.5 302.167,1219.5 301.5,1219.5C 201.002,1160.75 100.669,1101.75 0.5,1042.5C 101.083,984.377 202.083,927.043 303.5,870.5 Z"/></g>
</svg>
